<svg xmlns="http://www.w3.org/2000/svg" viewBox="0 0 100 100">
  <defs>
    <linearGradient id="carGrad" x1="0%" y1="0%" x2="100%" y2="100%">
      <stop offset="0%" style="stop-color:#1e3a8a;stop-opacity:1" />
      <stop offset="100%" style="stop-color:#0ea5e9;stop-opacity:1" />
    </linearGradient>
  </defs>
  <rect width="100" height="100" fill="#ffffff" rx="20"/>
  <path d="M25,55 L30,40 L35,35 L65,35 L70,40 L75,55 Z" fill="url(#carGrad)"/>
  <path d="M35,40 L38,37 L62,37 L65,40 Z" fill="#0ea5e9" opacity="0.3"/>
  <circle cx="35" cy="60" r="8" fill="#1f2937"/>
  <circle cx="35" cy="60" r="5" fill="#6b7280"/>
  <circle cx="65" cy="60" r="8" fill="#1f2937"/>
  <circle cx="65" cy="60" r="5" fill="#6b7280"/>
  <rect x="42" y="42" width="8" height="8" fill="#0ea5e9" opacity="0.5" rx="1"/>
  <rect x="52" y="42" width="8" height="8" fill="#0ea5e9" opacity="0.5" rx="1"/>
  <path d="M20,55 L25,55 L25,58 L22,60 L20,58 Z" fill="url(#carGrad)"/>
  <path d="M75,55 L80,55 L80,58 L78,60 L75,58 Z" fill="url(#carGrad)"/>
</svg>